<svg width="240" height="34" viewBox="0 0 240 34" fill="none" xmlns="http://www.w3.org/2000/svg">
<path d="M37.3678 3.96619L26.4407 23.9747H25.5458L18.7475 12.0052L12.2034 23.9747H11.2881L0 3.96619H0.818644L11.7458 23.3696L18.3051 11.2425L14.2373 3.96619H15.0508L25.9932 23.3696L36.5593 3.97636L37.3678 3.96619Z" fill="#6795CA"/>
<path d="M58.0219 16.8915H39.8439C39.9253 21.4542 42.7931 23.7356 48.4473 23.7356C49.996 23.7577 51.5348 23.4868 52.9829 22.9373C54.4665 22.4495 55.7014 21.4024 56.4253 20.0186H57.31C56.6795 21.5746 55.4219 22.7153 53.5371 23.4407C51.8725 24.0443 50.1108 24.3356 48.3405 24.3C45.6117 24.3 43.4388 23.7475 41.8219 22.6424C39.9575 21.3678 39.0236 19.422 39.0202 16.8051C38.9787 15.6626 39.2343 14.5289 39.7618 13.5147C40.2894 12.5005 41.0711 11.6405 42.0303 11.0186C43.7592 9.82372 45.9303 9.21863 48.549 9.21863C50.7821 9.13337 52.996 9.6609 54.9507 10.7441C55.9127 11.2903 56.7061 12.0905 57.2442 13.0572C57.7822 14.0239 58.0442 15.1199 58.0015 16.2254L58.0219 16.8915ZM57.0049 16.3322C57.0425 15.3293 56.8139 14.3343 56.3424 13.4483C55.8708 12.5624 55.1731 11.8171 54.3202 11.2881C52.5996 10.2231 50.6018 9.69225 48.5795 9.7627C46.5372 9.68561 44.518 10.2165 42.7778 11.2881C41.9186 11.8228 41.2033 12.5598 40.6946 13.4346C40.1858 14.3094 39.899 15.2955 39.8592 16.3068L57.0049 16.3322Z" fill="#6795CA"/>
<path d="M79.8304 16.8306C79.8304 19.3492 78.8761 21.2679 76.9676 22.5865C75.3202 23.7052 73.1677 24.2662 70.51 24.2696C68.8126 24.2997 67.1297 23.9523 65.5829 23.2526C64.0042 22.5935 62.7328 21.3621 62.0236 19.8052V23.995H61.1643V3.96619H62.0236V13.734C62.3373 12.9403 62.8106 12.2194 63.414 11.616C64.0175 11.0125 64.7384 10.5393 65.5321 10.2255C67.1092 9.52546 68.8203 9.17839 70.5456 9.20856C73.2049 9.20856 75.3558 9.80348 77.0083 10.9781C78.9202 12.3509 79.8304 14.2933 79.8304 16.8306ZM79.0066 16.8306C79.0066 14.5086 78.1812 12.7272 76.5304 11.4865C75.0388 10.3679 73.0948 9.80856 70.6982 9.80856C68.166 9.80856 66.1439 10.3492 64.6321 11.4306C62.9032 12.6509 62.0405 14.4797 62.0439 16.917C62.013 17.9518 62.2553 18.9764 62.7462 19.8877C63.2371 20.7991 63.9595 21.5651 64.8405 22.1086C66.5942 23.232 68.6471 23.7975 70.7287 23.7306C73.0677 23.7306 74.9914 23.1797 76.4999 22.078C77.3264 21.4787 77.9904 20.6826 78.4317 19.7619C78.873 18.8412 79.0776 17.8249 79.027 16.8052L79.0066 16.8306Z" fill="#6795CA"/>
<path d="M148.261 19.4847C148.261 21.2542 147.051 22.5915 144.631 23.4965C142.42 24.2556 140.093 24.6154 137.756 24.5593C134.726 24.5593 132.248 24.1966 130.322 23.4711C127.492 22.3898 126.075 20.5796 126.071 18.0406V17.7457H126.9V17.9237C126.9 21.9915 130.537 24.0254 137.812 24.0254C139.797 24.0668 141.777 23.8079 143.685 23.2576C146.166 22.4677 147.405 21.1898 147.402 19.4237C147.426 18.8595 147.303 18.2988 147.044 17.7968C146.786 17.2948 146.401 16.8688 145.927 16.561C144.926 16.005 143.84 15.6169 142.714 15.4118C141.904 15.2321 140.005 14.8932 137.019 14.3949C133.653 13.8389 131.39 13.3304 130.231 12.8694C128.027 12.005 126.926 10.7271 126.926 9.03553C126.926 5.77112 130.29 4.13892 137.019 4.13892C144.056 4.13892 147.615 6.07621 147.697 9.95078H146.843C146.687 7.79146 145.476 6.29654 143.212 5.46603C141.758 4.95756 139.693 4.70163 137.019 4.69824C130.859 4.69824 127.782 6.144 127.785 9.03553C127.785 10.4949 128.67 11.5779 130.439 12.3101C132.288 12.9261 134.197 13.342 136.134 13.5508C140.88 14.2016 144.036 14.8898 145.602 15.6152C147.371 16.4287 148.258 17.7186 148.261 19.4847Z" fill="#6795CA"/>
<path d="M168.732 24.3559H167.878V20.6949C167.601 21.4196 167.174 22.0777 166.626 22.6262C166.077 23.1747 165.419 23.6013 164.695 23.878C163.25 24.4557 161.704 24.7375 160.149 24.7068C158.393 24.7684 156.648 24.4038 155.064 23.6441C154.277 23.2708 153.617 22.6749 153.165 21.9302C152.713 21.1855 152.489 20.3247 152.522 19.4542V9.95593H153.376V19.3983C153.342 20.1779 153.536 20.9505 153.934 21.6215C154.332 22.2925 154.918 22.8328 155.618 23.1763C157.035 23.8546 158.595 24.1775 160.164 24.117C162.447 24.117 164.232 23.639 165.595 22.6729C167.124 21.5712 167.89 19.939 167.893 17.7763V9.95593H168.747L168.732 24.3559Z" fill="#6795CA"/>
<path d="M192.041 17.0948C192.041 19.6508 191.107 21.5982 189.239 22.9372C187.588 24.0965 185.434 24.6779 182.777 24.6813C181.051 24.7164 179.339 24.3691 177.763 23.6643C176.175 23.0054 174.913 21.7437 174.255 20.1558V29.3084H173.39V9.95584H174.249V14.1457C174.562 13.3501 175.031 12.6253 175.628 12.0139C176.225 11.4026 176.939 10.9172 177.727 10.5863C179.296 9.88774 180.999 9.54065 182.716 9.5694C185.37 9.5694 187.524 10.1406 189.178 11.283C191.09 12.6423 192.044 14.5796 192.041 17.0948ZM191.217 17.1253C191.264 16.1075 191.059 15.0939 190.622 14.1736C190.185 13.2533 189.529 12.4544 188.71 11.8474C187.202 10.7152 185.278 10.1491 182.939 10.1491C180.847 10.0746 178.782 10.6405 177.021 11.7711C176.144 12.3322 175.429 13.1113 174.944 14.032C174.459 14.9527 174.221 15.9836 174.255 17.0236C174.255 19.4609 175.117 21.2897 176.843 22.5101C178.338 23.5745 180.361 24.105 182.914 24.1016C185.266 24.1016 187.199 23.5423 188.71 22.4236C189.529 21.8119 190.185 21.0092 190.622 20.0858C191.059 19.1623 191.263 18.1459 191.217 17.1253V17.1253Z" fill="#6795CA"/>
<path d="M214.495 17.0948C214.495 19.6507 213.561 21.5981 211.693 22.9371C210.042 24.0965 207.888 24.6778 205.23 24.6812C203.504 24.7164 201.792 24.3691 200.217 23.6642C198.629 23.0041 197.366 21.743 196.703 20.1558V29.3083H195.849V9.95577H196.703V14.1456C197.016 13.3494 197.485 12.6242 198.084 12.0128C198.682 11.4014 199.397 10.9163 200.186 10.5863C201.753 9.88824 203.454 9.54116 205.169 9.56934C207.823 9.56934 209.978 10.1405 211.632 11.2829C213.54 12.6422 214.495 14.5795 214.495 17.0948ZM213.666 17.1253C213.712 16.108 213.508 15.095 213.072 14.1749C212.636 13.2547 211.981 12.4556 211.164 11.8473C209.656 10.7151 207.732 10.149 205.393 10.149C203.299 10.0738 201.233 10.6397 199.469 11.771C198.594 12.3329 197.879 13.1121 197.394 14.0327C196.909 14.9532 196.671 15.9837 196.703 17.0236C196.703 19.4609 197.568 21.2897 199.296 22.51C200.788 23.5744 202.81 24.1049 205.362 24.1015C207.715 24.1015 209.649 23.5422 211.164 22.4236C211.981 21.8106 212.635 21.0077 213.071 20.0844C213.507 19.1611 213.711 18.1453 213.666 17.1253V17.1253Z" fill="#6795CA"/>
<path d="M219.152 24.3559H218.293V4.35254H219.152V24.3559Z" fill="#6795CA"/>
<path d="M240 23.878C240 27.7322 237.02 29.6593 231.061 29.6593C229.33 29.7055 227.605 29.426 225.976 28.8356C224.047 28.0695 223.031 26.8305 222.925 25.1186H223.729C224.024 27.7729 226.492 29.1 231.132 29.1C236.468 29.1 239.134 27.3492 239.131 23.8475V20.7203C238.848 21.4412 238.417 22.0947 237.866 22.6386C237.316 23.1825 236.657 23.6047 235.932 23.878C234.488 24.4566 232.942 24.7385 231.386 24.7068C229.631 24.7678 227.886 24.4032 226.302 23.6441C225.515 23.2703 224.855 22.6743 224.403 21.9297C223.952 21.1852 223.728 20.3246 223.759 19.4542V9.95593H224.614V19.3983C224.579 20.1779 224.773 20.9505 225.172 21.6215C225.57 22.2925 226.155 22.8328 226.856 23.1763C228.271 23.8538 229.829 24.1767 231.397 24.117C233.681 24.117 235.492 23.6356 236.827 22.6729C238.363 21.5712 239.131 19.939 239.131 17.7763V9.95593H240V23.878Z" fill="#6795CA"/>
<path d="M108.763 7.04244C108.764 7.66717 108.58 8.27816 108.233 8.7981C107.887 9.31804 107.394 9.72355 106.817 9.96333C106.24 10.2031 105.605 10.2664 104.992 10.1451C104.38 10.0238 103.817 9.7235 103.374 9.2821C102.932 8.8407 102.631 8.27807 102.509 7.66542C102.387 7.05276 102.449 6.4176 102.688 5.84033C102.926 5.26305 103.331 4.7696 103.851 4.42241C104.37 4.07522 104.981 3.8899 105.605 3.8899C106.02 3.88923 106.43 3.97028 106.813 4.12841C107.196 4.28654 107.545 4.51865 107.838 4.81145C108.131 5.10426 108.364 5.45202 108.523 5.83483C108.681 6.21765 108.763 6.62801 108.763 7.04244V7.04244Z" fill="#6795CA"/>
<path d="M100.998 24.2084L98.6035 11.2322H103.678L105.605 15.3356L100.998 24.2084Z" fill="#6795CA"/>
<path d="M110.212 24.2084L112.612 11.2322H107.532L105.605 15.3356L110.212 24.2084Z" fill="#6795CA"/>
<path d="M103.658 7.04244C103.659 7.66739 103.474 8.27859 103.128 8.79864C102.781 9.31868 102.288 9.72419 101.711 9.96382C101.134 10.2034 100.499 10.2664 99.8855 10.1447C99.2725 10.023 98.7094 9.7222 98.2675 9.2803C97.8256 8.83839 97.5248 8.27529 97.4031 7.6623C97.2814 7.0493 97.3444 6.41398 97.584 5.8368C97.8236 5.25961 98.2291 4.76651 98.7492 4.41993C99.2692 4.07336 99.8804 3.88889 100.505 3.8899C101.342 3.8899 102.143 4.22204 102.735 4.81325C103.326 5.40447 103.658 6.20633 103.658 7.04244V7.04244Z" fill="#E86D6C"/>
<path d="M95.8933 24.2084L93.4984 11.2322H98.578L100.505 15.3356L95.8933 24.2084Z" fill="#E86D6C"/>
<path d="M105.112 24.2084L107.507 11.2322H102.427L100.505 15.3356L105.112 24.2084Z" fill="#E86D6C"/>
<path d="M121.434 14.217C121.393 14.6644 121.378 15.0966 121.312 15.5593C121.233 16.0473 121.129 16.531 121.002 17.0085C120.873 17.4679 120.713 17.918 120.524 18.3559C120.347 18.7946 120.138 19.2195 119.898 19.6271L119.537 20.2424C119.415 20.4407 119.268 20.6237 119.13 20.817L118.719 21.3864L118.256 21.8949C118.098 22.0627 117.951 22.2458 117.788 22.4034L117.28 22.8814C116.944 23.2015 116.589 23.5004 116.217 23.7763C115.859 24.0674 115.484 24.3357 115.093 24.5797C114.712 24.8359 114.316 25.0702 113.908 25.2814C113.71 25.3932 113.512 25.5102 113.308 25.6119L112.683 25.8966L112.063 26.1814L111.422 26.4254C110.998 26.5906 110.565 26.7332 110.125 26.8525C109.688 26.9746 109.256 27.122 108.808 27.2034C108.361 27.2848 107.929 27.4017 107.481 27.4678L106.139 27.6509L106.322 27.5288L103.088 33.122L102.869 33.4983L102.651 33.122L99.4117 27.5288L99.5948 27.6509C98.1174 27.4466 96.662 27.1062 95.2473 26.6339C93.8265 26.1386 92.4628 25.4925 91.1795 24.7068C89.916 23.912 88.7664 22.9489 87.7626 21.8441C86.7351 20.7148 85.9265 19.4044 85.3778 17.9797C84.8325 16.5365 84.6002 14.994 84.6965 13.4542C84.701 13.0766 84.7419 12.7003 84.8185 12.3305C84.8948 11.9492 84.9456 11.5475 85.0575 11.1763L85.4185 10.078C85.5558 9.72204 85.7389 9.38136 85.8965 9.03051C86.592 7.66218 87.5134 6.42102 88.6219 5.35933C88.8812 5.07458 89.1965 4.85085 89.4761 4.59661C89.7601 4.3413 90.0608 4.10518 90.3762 3.88983L91.3117 3.23899L92.2982 2.66441C92.6261 2.47371 92.9658 2.30388 93.3151 2.15593C93.6609 1.99831 93.9965 1.81526 94.3321 1.68306C95.0328 1.39388 95.7491 1.14433 96.4778 0.935599C97.9336 0.50901 99.4268 0.222951 100.937 0.0813578L102.071 0.0254253L102.641 0H102.783H102.951H103.225C103.973 0.00119025 104.72 0.0419279 105.463 0.122037C105.844 0.167799 106.23 0.198308 106.612 0.249155L107.735 0.462714L108.295 0.564407L108.849 0.711869L109.952 1.01187L111.03 1.39322L111.569 1.58136L112.078 1.81526L113.125 2.29323L114.142 2.85254C115.49 3.61899 116.723 4.57254 117.803 5.68475C117.935 5.82204 118.078 5.95932 118.21 6.10169L118.581 6.55933C118.837 6.85621 119.076 7.16684 119.298 7.48984L119.934 8.48136C120.117 8.83729 120.28 9.19322 120.442 9.55424C121.076 11.0165 121.403 12.5929 121.403 14.1864L121.434 14.217ZM119.766 14.1661C119.714 12.8117 119.411 11.4788 118.871 10.2356C118.312 8.98013 117.539 7.83096 116.588 6.83899C115.63 5.82225 114.535 4.94428 113.334 4.23051L112.424 3.72204L111.468 3.26441L110.985 3.04068L110.476 2.85254L109.459 2.48136L108.442 2.18644L107.934 2.03899L107.425 1.9322L106.378 1.71865C106.032 1.66271 105.686 1.62712 105.335 1.58136C104.617 1.48713 103.894 1.43282 103.169 1.41865H102.895H102.651H102.142L101.074 1.45424C99.6493 1.56093 98.2377 1.80443 96.8592 2.18136C96.1703 2.36637 95.4914 2.587 94.8253 2.84238C94.4897 2.96441 94.1745 3.12712 93.849 3.2695C93.52 3.40691 93.1991 3.56309 92.888 3.73729L91.9575 4.24577L91.0728 4.84068C90.7762 5.03574 90.4926 5.24975 90.2236 5.48136C89.9592 5.71526 89.6592 5.91864 89.4151 6.17288C88.378 7.13391 87.5084 8.26126 86.8422 9.50848C86.6948 9.82373 86.5219 10.1288 86.3897 10.4542L86.0439 11.4712C85.9372 11.8017 85.8914 12.1373 85.81 12.4881C85.7307 12.8371 85.6864 13.1931 85.6778 13.5509C85.5629 14.9568 85.7484 16.3712 86.2219 17.7C86.7143 19.0371 87.4447 20.274 88.3778 21.3508C89.3154 22.4408 90.3965 23.3987 91.5914 24.1983C92.8103 24.9783 94.1071 25.6293 95.4609 26.1407C96.8302 26.6288 98.2411 26.9913 99.6761 27.2237H99.8033L99.8592 27.3254L103.098 32.9186H102.661L105.895 27.3254L105.951 27.2288L106.078 27.2034L107.369 26.9288C107.802 26.8322 108.219 26.6898 108.641 26.578C109.063 26.4661 109.469 26.2932 109.881 26.1508C110.293 26.0025 110.697 25.8328 111.091 25.6424L111.691 25.378L112.266 25.0729L112.841 24.7678C113.029 24.661 113.207 24.539 113.395 24.4271C113.766 24.2048 114.124 23.962 114.468 23.7C114.813 23.4407 115.159 23.1915 115.485 22.8966C115.813 22.6215 116.124 22.326 116.415 22.0119L116.863 21.5542C117.005 21.3966 117.127 21.2237 117.264 21.0458L117.666 20.5373L118.012 20.0288C118.129 19.8508 118.251 19.683 118.358 19.5203L118.647 18.9661C118.846 18.5984 119.016 18.2159 119.156 17.822C119.305 17.4344 119.428 17.0369 119.522 16.6322C119.634 16.2356 119.654 15.8492 119.73 15.4627C119.807 15.0763 119.771 14.578 119.791 14.1407L119.766 14.1661Z" fill="#6795CA"/>
</svg>
